<svg width="700" height="700" viewBox="0 0 700 700" fill="none" xmlns="http://www.w3.org/2000/svg">
<path d="M588.56 478.8L500.08 390.32C528.642 352.8 546.002 305.761 546.002 254.8C546.002 132.72 446.881 33.6 324.802 33.6C202.722 33.6 103.602 132.717 103.602 254.8C103.602 376.88 202.723 476.56 324.802 476.56C375.763 476.56 422.802 459.201 460.322 430.08L548.802 518.002C553.841 523.604 561.122 526.4 568.404 526.4C575.686 526.4 582.963 523.6 588.564 518.561C599.763 507.358 599.763 489.999 588.56 478.799L588.56 478.8ZM159.6 254.8C159.6 163.519 233.518 89.6 324.8 89.6C416.077 89.6 490 163.518 490 254.8C490 346.077 416.078 420 324.8 420C233.519 420 159.6 346.078 159.6 254.8Z" fill="white"/>
</svg>
