<?xml version="1.0" encoding="UTF-8"?>
<svg width="700pt" height="700pt" version="1.1" viewBox="0 0 700 700" xmlns="http://www.w3.org/2000/svg">
 <g>
  <path d="m580.3 183.23c-21.875-5.7773-72.801-5.6016-148.4-8.2266 3.6055-18.91 5.0742-38.164 4.375-57.398 0-62.301-45.848-117.6-86.273-117.6-13.926 0-27.277 5.5312-37.125 15.375-9.8438 9.8477-15.375 23.199-15.375 37.125 0 35-11.375 96.074-70 126.88l-17.5 8.9258c-9.7891-8.332-22.148-13.027-35-13.301h-52.5c-13.926 0-27.277 5.5312-37.125 15.375-9.8438 9.8477-15.375 23.199-15.375 37.125v280c0 13.926 5.5312 27.277 15.375 37.125 9.8477 9.8438 23.199 15.375 37.125 15.375h52.5c9.8438-0.15625 19.445-3.082 27.707-8.4336 8.2617-5.3516 14.852-12.922 19.02-21.84h0.875l4.0234 1.2266 0.875-0.003906c10.148 2.4492 29.398 7.1758 71.051 16.625 34.133 7.6914 68.965 11.855 103.95 12.426h95.551c12.605 0.96094 25.219-1.707 36.355-7.6953 11.133-5.9844 20.32-15.035 26.469-26.078 3.1406-6.0156 5.7734-12.277 7.875-18.727 2.8438-10.07 2.8438-20.73 0-30.801 14.555-11.23 24.711-27.207 28.699-45.148 5.8203-15.395 5.8203-32.383 0-47.777 13.047-13.059 21.309-30.137 23.449-48.473 2.375-14.199-0.023438-28.785-6.8242-41.477 9.6328-10.445 15.273-23.953 15.926-38.148v-3.5-8.75c-0.60547-14.074-5.7891-27.57-14.758-38.434-8.9688-10.863-21.238-18.504-34.941-21.766zm-387.8 324.27c0 4.6406-1.8438 9.0938-5.125 12.375s-7.7344 5.125-12.375 5.125h-52.5c-4.6406 0-9.0938-1.8438-12.375-5.125s-5.125-7.7344-5.125-12.375v-280c0-4.6406 1.8438-9.0938 5.125-12.375s7.7344-5.125 12.375-5.125h52.5c4.6406 0 9.0938 1.8438 12.375 5.125s5.125 7.7344 5.125 12.375zm402.5-253.23c0 8.2266-4.375 25.727-35 25.727h-35c-4.832 0-8.75 3.918-8.75 8.75s3.918 8.75 8.75 8.75h33.949c8.4023-0.71484 16.645 2.6289 22.176 8.9922 5.5352 6.3633 7.6992 14.984 5.8242 23.207-2.2734 13.125-8.3984 37.801-37.801 37.801h-41.648c-4.832 0-8.75 3.918-8.75 8.75 0 2.3203 0.92188 4.5469 2.5625 6.1875s3.8672 2.5625 6.1875 2.5625h35c29.574 0 26.949 22.574 22.75 36.051-5.6016 17.5-9.1016 33.949-46.199 33.949h-29.051c-4.832 0-8.75 3.918-8.75 8.75 0.09375 4.793 3.957 8.6562 8.75 8.75h27.477c6.0391-0.078125 11.73 2.8164 15.227 7.7422 3.4922 4.9297 4.3438 11.258 2.2734 16.934-1.2969 4.3242-2.9336 8.5352-4.9023 12.598-3.1992 5.4141-7.9336 9.75-13.605 12.461s-12.023 3.6758-18.242 2.7656h-95.727c-32.609-0.46094-65.094-4.2148-96.949-11.199-72.801-17.5-76.648-17.5-81.199-19.25 0 0-14.699-2.625-14.699-15.398l-0.003906-241.85c0.15234-4.0078 1.5742-7.8633 4.0586-11.008s5.9062-5.418 9.7695-6.4922l4.0234-1.9258c79.977-33.25 105-105 105-165.38 0-4.6406 1.8438-9.0938 5.125-12.375s7.7344-5.125 12.375-5.125c18.551 0 51.273 37.102 51.273 83.125 1.5352 31.457-4.0273 62.859-16.273 91.875 175 0 173.77 2.4492 189.18 6.6484 6.043 1.3438 11.434 4.75 15.234 9.6406 3.8008 4.8867 5.7773 10.945 5.5898 17.137v10.848z"/>
  <path d="m148.75 234.15c-6.9609 0-13.641 2.7656-18.562 7.6914-4.9219 4.9219-7.6875 11.598-7.6875 18.559 0 6.9648 2.7656 13.641 7.6875 18.562 4.9219 4.9219 11.602 7.6875 18.562 7.6875s13.641-2.7656 18.562-7.6875c4.9219-4.9219 7.6875-11.598 7.6875-18.562 0-6.9609-2.7656-13.637-7.6875-18.559-4.9219-4.9258-11.602-7.6914-18.562-7.6914zm0 35c-4.832 0-8.75-3.9141-8.75-8.75 0-4.832 3.918-8.75 8.75-8.75s8.75 3.918 8.75 8.75c0 2.3203-0.92188 4.5469-2.5625 6.1875-1.6406 1.6406-3.8672 2.5625-6.1875 2.5625z"/>
  <path d="m97.301 439.77h60.199v17.5h-60.199z"/>
  <path d="m97.301 473.55h77.699v17.5h-77.699z"/>
  <path d="m97.301 501.02h95.199v17.5h-95.199z"/>
 </g>
</svg>
