<?xml version="1.0" encoding="UTF-8"?>
<svg width="700pt" height="700pt" version="1.1" viewBox="0 0 700 700" xmlns="http://www.w3.org/2000/svg">
 <path d="m261.01 154.98c-17.27 9.1445-33.461 19.391-50.867 28.887-13.207 7.2109-55.652 30.215-62.605 36.82l-9.8203 9.8477c-19.18 19.344-31.266 59.711-31.266 89.809 0 28.582-0.46484 44.172 10.383 71.309 7.1406 17.875 18.668 31.734 32.785 43.027 33.926 27.113 71.984 25.48 111.37 25.48v41.324c0 7.1406 5.832 17.125 9.6133 20.906 2.0547 2.0547 6.5781 5.0156 9.2383 6.4648 3.5234 1.9375 7.3047 3.1016 12.391 3.125h231.61c7.8633 0 17.078-5.9023 21.188-10.289 4.7852-5.1094 9.3086-12.809 9.3086-22.168v-48.23h10.828c36.191 0 40.809-58.078-3.9414-58.078h-49.211c-27.559 0-35.652 24.453-27.883 42.652 1.8203 4.2227 3.0117 4.8516 5.9727 7.8164 9.9883 10.012 23.102 7.6055 39.645 7.6055l-0.007813 17.711h-244.14v-242.15c0-2.7773 22.398-17.012 27.578-20.648l47.949-36.727c12.156-10.242 23.895-21.488 23.895-39.082 0-13.465-10.266-24.617-23.613-24.617-15.75 0-28.582 9.7773-39.715 15.422l-36.094 19.996v-59.059h244.14v109.27c-9.8711 0-27.512 0.23438-33.832 3.5703-23.824 12.648-17.289 54.484 12.18 54.484h60.035c11.691 0 24.617-11.945 24.617-23.613 0-11.48 0.88672-20.043-10.664-28.723-7.2344-5.4375-17.172-5.7383-27.719-5.7383l-0.003907-130.9c0-9.3789-4.5273-17.059-9.3086-22.191-4.1055-4.3867-13.348-10.289-21.211-10.289h-231.32c-11.34 0-20.441 7.2109-25.34 14.023-7.2344 10.078-6.1602 16.988-6.1602 33.227v79.73zm220.5 129.94c0-12.484 12.438-25.598 24.617-25.598h62.02c7.6289 0 14.605 4.875 18.48 9.0781 14.723 15.844 4.1055 48.02-17.5 48.02h-62.02c-14.234 0-25.598-12.438-25.598-26.578zm0 66.945c0-12.879 12.25-25.621 27.578-25.621h57.074c27.441 0 34.578 35.375 18.105 50.609-6.0898 5.625-12.227 7.4648-23.031 7.4648h-49.211c-8.9609 0-16.613-2.6133-21.441-7.0938-8.8203-8.0938-9.0742-15.305-9.0742-25.359zm-73.828 129.99c9.1484 0 16.566 7.4219 16.566 16.566 0 9.1719-7.4219 16.566-16.566 16.566-9.1719 0-16.566-7.3984-16.566-16.566 0-9.1211 7.3984-16.566 16.566-16.566zm-35.512-429.68h71.004c2.3555 0 4.293 1.9375 4.293 4.3164 0 2.3789-1.9375 4.293-4.293 4.293l-71.004 0.003906c-2.3555 0-4.293-1.9375-4.293-4.293 0.023438-2.3828 1.957-4.3203 4.293-4.3203z" fill-rule="evenodd"/>
</svg>
