<?xml version="1.0" encoding="UTF-8"?>
<svg width="700pt" height="700pt" version="1.1" viewBox="0 0 700 700" xmlns="http://www.w3.org/2000/svg" xmlns:xlink="http://www.w3.org/1999/xlink">
 <defs>
  <symbol id="t" overflow="visible">
   <path d="m14.656-0.875c-0.76172 0.39844-1.5547 0.69531-2.375 0.89062-0.8125 0.19531-1.6641 0.29688-2.5469 0.29688-2.6562 0-4.7617-0.73828-6.3125-2.2188-1.5547-1.4883-2.3281-3.5039-2.3281-6.0469 0-2.5508 0.77344-4.5664 2.3281-6.0469 1.5508-1.4883 3.6562-2.2344 6.3125-2.2344 0.88281 0 1.7344 0.10156 2.5469 0.29688 0.82031 0.19922 1.6133 0.49609 2.375 0.89062v3.2969c-0.76172-0.51953-1.5117-0.89844-2.25-1.1406-0.74219-0.23828-1.5234-0.35938-2.3438-0.35938-1.4688 0-2.625 0.46875-3.4688 1.4062-0.83594 0.9375-1.25 2.2344-1.25 3.8906 0 1.6484 0.41406 2.9375 1.25 3.875 0.84375 0.9375 2 1.4062 3.4688 1.4062 0.82031 0 1.6016-0.11719 2.3438-0.35938 0.73828-0.23828 1.4883-0.61719 2.25-1.1406z"/>
  </symbol>
  <symbol id="d" overflow="visible">
   <path d="m10.719-8.7031c-0.33594-0.15625-0.66797-0.26953-1-0.34375-0.32422-0.082031-0.65625-0.125-1-0.125-0.98047 0-1.7344 0.32031-2.2656 0.95312-0.53125 0.625-0.79688 1.5273-0.79688 2.7031v5.5156h-3.8125v-11.969h3.8125v1.9688c0.48828-0.78125 1.0508-1.3477 1.6875-1.7031 0.64453-0.36328 1.4102-0.54688 2.2969-0.54688 0.13281 0 0.27344 0.007812 0.42188 0.015625 0.14453 0.011719 0.36328 0.03125 0.65625 0.0625z"/>
  </symbol>
  <symbol id="b" overflow="visible">
   <path d="m13.781-6.0156v1.0938h-8.9375c0.09375 0.89844 0.41406 1.5703 0.96875 2.0156 0.55078 0.44922 1.3281 0.67188 2.3281 0.67188 0.80078 0 1.625-0.11719 2.4688-0.35938 0.84375-0.23828 1.7109-0.59766 2.6094-1.0781v2.9531c-0.90625 0.33594-1.8125 0.58984-2.7188 0.76562s-1.8125 0.26562-2.7188 0.26562c-2.1562 0-3.8398-0.54688-5.0469-1.6406-1.1992-1.1016-1.7969-2.6484-1.7969-4.6406 0-1.9453 0.58594-3.4766 1.7656-4.5938 1.1758-1.125 2.8008-1.6875 4.875-1.6875 1.875 0 3.375 0.57031 4.5 1.7031 1.1328 1.125 1.7031 2.6367 1.7031 4.5312zm-3.9375-1.2656c0-0.72656-0.21484-1.3125-0.64062-1.75-0.41797-0.44531-0.96875-0.67188-1.6562-0.67188-0.74219 0-1.3438 0.21094-1.8125 0.625-0.46094 0.41797-0.74609 1.0156-0.85938 1.7969z"/>
  </symbol>
  <symbol id="k" overflow="visible">
   <path d="m7.2031-5.3906c-0.80469 0-1.4062 0.13672-1.8125 0.40625-0.39844 0.27344-0.59375 0.67188-0.59375 1.2031 0 0.48047 0.16016 0.85938 0.48438 1.1406 0.32031 0.27344 0.77344 0.40625 1.3594 0.40625 0.71875 0 1.3203-0.25391 1.8125-0.76562 0.48828-0.51953 0.73438-1.1719 0.73438-1.9531v-0.4375zm5.8438-1.4375v6.8281h-3.8594v-1.7656c-0.51172 0.71875-1.0898 1.2461-1.7344 1.5781-0.63672 0.33203-1.418 0.5-2.3438 0.5-1.2422 0-2.2461-0.35938-3.0156-1.0781-0.77344-0.72656-1.1562-1.6719-1.1562-2.8281 0-1.3945 0.47656-2.4219 1.4375-3.0781 0.96875-0.65625 2.4883-0.98438 4.5625-0.98438h2.25v-0.29688c0-0.60156-0.24219-1.0469-0.71875-1.3281-0.48047-0.28125-1.2266-0.42188-2.2344-0.42188-0.8125 0-1.5742 0.085937-2.2812 0.25-0.71094 0.15625-1.3672 0.40234-1.9688 0.73438v-2.9219c0.82031-0.19531 1.6445-0.34766 2.4688-0.45312 0.82031-0.10156 1.6484-0.15625 2.4844-0.15625 2.1562 0 3.7109 0.42969 4.6719 1.2812 0.95703 0.84375 1.4375 2.2266 1.4375 4.1406z"/>
  </symbol>
  <symbol id="c" overflow="visible">
   <path d="m6.0156-15.359v3.3906h3.9375v2.7344h-3.9375v5.0781c0 0.55469 0.10938 0.92969 0.32812 1.125 0.21875 0.19922 0.65625 0.29688 1.3125 0.29688h1.9688v2.7344h-3.2812c-1.5117 0-2.5859-0.3125-3.2188-0.9375-0.625-0.63281-0.9375-1.707-0.9375-3.2188v-5.0781h-1.9062v-2.7344h1.9062v-3.3906z"/>
  </symbol>
  <symbol id="j" overflow="visible">
   <path d="m9.9688-10.219v-6.4062h3.8594v16.625h-3.8594v-1.7344c-0.52344 0.71094-1.1016 1.2305-1.7344 1.5625-0.63672 0.32031-1.3711 0.48438-2.2031 0.48438-1.4688 0-2.6797-0.58203-3.625-1.75-0.94922-1.1758-1.4219-2.6875-1.4219-4.5312s0.47266-3.3477 1.4219-4.5156c0.94531-1.1758 2.1562-1.7656 3.625-1.7656 0.83203 0 1.5664 0.16797 2.2031 0.5 0.63281 0.32422 1.2109 0.83594 1.7344 1.5312zm-2.5156 7.75c0.82031 0 1.4453-0.29688 1.875-0.89062 0.42578-0.60156 0.64062-1.4727 0.64062-2.6094 0-1.1445-0.21484-2.0156-0.64062-2.6094-0.42969-0.59375-1.0547-0.89062-1.875-0.89062-0.8125 0-1.4336 0.29688-1.8594 0.89062-0.42969 0.59375-0.64062 1.4648-0.64062 2.6094 0 1.1367 0.21094 2.0078 0.64062 2.6094 0.42578 0.59375 1.0469 0.89062 1.8594 0.89062z"/>
  </symbol>
  <symbol id="f" overflow="visible">
   <path d="m8.2031-2.4688c0.82031 0 1.4453-0.29688 1.875-0.89062 0.42578-0.60156 0.64062-1.4727 0.64062-2.6094 0-1.1445-0.21484-2.0156-0.64062-2.6094-0.42969-0.59375-1.0547-0.89062-1.875-0.89062-0.82422 0-1.4531 0.30469-1.8906 0.90625-0.4375 0.59375-0.65625 1.4609-0.65625 2.5938 0 1.1367 0.21875 2.0078 0.65625 2.6094 0.4375 0.59375 1.0664 0.89062 1.8906 0.89062zm-2.5469-7.75c0.53125-0.69531 1.1133-1.207 1.75-1.5312 0.64453-0.33203 1.3828-0.5 2.2188-0.5 1.4688 0 2.6758 0.58984 3.625 1.7656 0.94531 1.168 1.4219 2.6719 1.4219 4.5156s-0.47656 3.3555-1.4219 4.5312c-0.94922 1.168-2.1562 1.75-3.625 1.75-0.83594 0-1.5742-0.16797-2.2188-0.5-0.63672-0.33203-1.2188-0.84766-1.75-1.5469v1.7344h-3.8125v-16.625h3.8125z"/>
  </symbol>
  <symbol id="e" overflow="visible">
   <path d="m0.26562-11.969h3.8281l3.2188 8.125 2.7344-8.125h3.8125l-5.0312 13.094c-0.5 1.332-1.0898 2.2656-1.7656 2.7969-0.66797 0.53125-1.5547 0.79688-2.6562 0.79688h-2.2188v-2.5h1.2031c0.64453 0 1.1133-0.10547 1.4062-0.3125 0.30078-0.21094 0.53125-0.57812 0.6875-1.1094l0.10938-0.34375z"/>
  </symbol>
  <symbol id="i" overflow="visible">
   <path d="m13.109-15.438v3.375c-0.875-0.39453-1.7305-0.69141-2.5625-0.89062-0.83594-0.19531-1.6211-0.29688-2.3594-0.29688-0.99219 0-1.7188 0.13672-2.1875 0.40625-0.46875 0.27344-0.70312 0.6875-0.70312 1.25 0 0.42969 0.15625 0.76172 0.46875 1 0.32031 0.24219 0.89844 0.44922 1.7344 0.625l1.75 0.34375c1.7695 0.35547 3.0312 0.89844 3.7812 1.625 0.75 0.73047 1.125 1.7617 1.125 3.0938 0 1.7617-0.52734 3.0742-1.5781 3.9375-1.043 0.85547-2.6328 1.2812-4.7656 1.2812-1.0117 0-2.0273-0.10156-3.0469-0.29688-1.0234-0.1875-2.043-0.46875-3.0625-0.84375v-3.4688c1.0195 0.53125 2.0039 0.9375 2.9531 1.2188 0.95703 0.27344 1.875 0.40625 2.75 0.40625 0.90625 0 1.5938-0.14453 2.0625-0.4375 0.47656-0.30078 0.71875-0.73438 0.71875-1.2969 0-0.48828-0.16406-0.86719-0.48438-1.1406-0.32422-0.26953-0.96875-0.51562-1.9375-0.73438l-1.5938-0.35938c-1.5938-0.33203-2.7617-0.875-3.5-1.625-0.74219-0.75-1.1094-1.7578-1.1094-3.0312 0-1.582 0.50781-2.8008 1.5312-3.6562 1.0312-0.85156 2.5078-1.2812 4.4375-1.2812 0.875 0 1.7734 0.070313 2.7031 0.20312 0.92578 0.125 1.8828 0.32422 2.875 0.59375z"/>
  </symbol>
  <symbol id="h" overflow="visible">
   <path d="m12.922-9.9688c0.48828-0.75 1.0625-1.3164 1.7188-1.7031 0.66406-0.38281 1.3984-0.57812 2.2031-0.57812 1.375 0 2.4219 0.42969 3.1406 1.2812 0.71875 0.84375 1.0781 2.0742 1.0781 3.6875v7.2812h-3.8438v-6.2344c0.007812-0.09375 0.015625-0.1875 0.015625-0.28125v-0.4375c0-0.84375-0.125-1.457-0.375-1.8438-0.25-0.38281-0.65234-0.57812-1.2031-0.57812-0.73047 0-1.293 0.30469-1.6875 0.90625-0.38672 0.59375-0.58984 1.4609-0.60938 2.5938v5.875h-3.8438v-6.2344c0-1.3203-0.11719-2.1758-0.34375-2.5625-0.23047-0.38281-0.63672-0.57812-1.2188-0.57812-0.73047 0-1.2969 0.30469-1.7031 0.90625-0.39844 0.60547-0.59375 1.4648-0.59375 2.5781v5.8906h-3.8438v-11.969h3.8438v1.75c0.46875-0.66406 1.0039-1.1719 1.6094-1.5156 0.61328-0.34375 1.2891-0.51562 2.0312-0.51562 0.82031 0 1.5508 0.19922 2.1875 0.59375 0.63281 0.39844 1.1133 0.96094 1.4375 1.6875z"/>
  </symbol>
  <symbol id="a" overflow="visible">
   <path d="m7.5312-9.5156c-0.84375 0-1.4922 0.30859-1.9375 0.92188-0.44922 0.60547-0.67188 1.4805-0.67188 2.625 0 1.1484 0.22266 2.0273 0.67188 2.6406 0.44531 0.60547 1.0938 0.90625 1.9375 0.90625 0.83203 0 1.4688-0.30078 1.9062-0.90625 0.44531-0.61328 0.67188-1.4922 0.67188-2.6406 0-1.1445-0.22656-2.0195-0.67188-2.625-0.4375-0.61328-1.0742-0.92188-1.9062-0.92188zm0-2.7344c2.0508 0 3.6562 0.55859 4.8125 1.6719 1.1641 1.1055 1.75 2.6406 1.75 4.6094s-0.58594 3.5117-1.75 4.625c-1.1562 1.1055-2.7617 1.6562-4.8125 1.6562-2.0625 0-3.6797-0.55078-4.8438-1.6562-1.168-1.1133-1.75-2.6562-1.75-4.625s0.58203-3.5039 1.75-4.6094c1.1641-1.1133 2.7812-1.6719 4.8438-1.6719z"/>
  </symbol>
  <symbol id="s" overflow="visible">
   <path d="m1.8438-16.625h3.8125v16.625h-3.8125z"/>
  </symbol>
  <symbol id="g" overflow="visible">
   <path d="m13.859-7.2812v7.2812h-3.8438v-5.5781c0-1.0312-0.027344-1.7383-0.078125-2.125-0.042969-0.39453-0.12109-0.6875-0.23438-0.875-0.14844-0.25-0.35156-0.44141-0.60938-0.57812-0.25-0.14453-0.54297-0.21875-0.875-0.21875-0.79297 0-1.418 0.3125-1.875 0.9375-0.46094 0.61719-0.6875 1.4648-0.6875 2.5469v5.8906h-3.8125v-11.969h3.8125v1.75c0.58203-0.69531 1.1953-1.207 1.8438-1.5312 0.64453-0.33203 1.3594-0.5 2.1406-0.5 1.3828 0 2.4297 0.42969 3.1406 1.2812 0.71875 0.84375 1.0781 2.0742 1.0781 3.6875z"/>
  </symbol>
  <symbol id="r" overflow="visible">
   <path d="m9.7031-16.625v2.5156h-2.1094c-0.54297 0-0.92188 0.10156-1.1406 0.29688-0.21094 0.19922-0.3125 0.53906-0.3125 1.0156v0.82812h3.2656v2.7344h-3.2656v9.2344h-3.8281v-9.2344h-1.8906v-2.7344h1.8906v-0.82812c0-1.3008 0.36328-2.2656 1.0938-2.8906 0.72656-0.625 1.8516-0.9375 3.375-0.9375z"/>
  </symbol>
  <symbol id="q" overflow="visible">
   <path d="m13.859-7.2812v7.2812h-3.8438v-5.5469c0-1.0508-0.027344-1.7695-0.078125-2.1562-0.042969-0.39453-0.12109-0.6875-0.23438-0.875-0.14844-0.25-0.35156-0.44141-0.60938-0.57812-0.25-0.14453-0.54297-0.21875-0.875-0.21875-0.79297 0-1.418 0.3125-1.875 0.9375-0.46094 0.61719-0.6875 1.4648-0.6875 2.5469v5.8906h-3.8125v-16.625h3.8125v6.4062c0.58203-0.69531 1.1953-1.207 1.8438-1.5312 0.64453-0.33203 1.3594-0.5 2.1406-0.5 1.3828 0 2.4297 0.42969 3.1406 1.2812 0.71875 0.84375 1.0781 2.0742 1.0781 3.6875z"/>
  </symbol>
  <symbol id="p" overflow="visible">
   <path d="m2.0156-15.953h4.5781l5.8125 10.938v-10.938h3.8906v15.953h-4.5938l-5.7969-10.938v10.938h-3.8906z"/>
  </symbol>
  <symbol id="o" overflow="visible">
   <path d="m1.7031-4.6562v-7.3125h3.8438v1.2031c0 0.64844-0.007813 1.4609-0.015625 2.4375v1.9688c0 0.96094 0.023438 1.6523 0.078125 2.0781 0.050781 0.41797 0.13281 0.72656 0.25 0.92188 0.15625 0.25 0.35938 0.44531 0.60938 0.57812 0.25781 0.13672 0.55078 0.20312 0.875 0.20312 0.80078 0 1.4258-0.30469 1.875-0.92188 0.45703-0.61328 0.6875-1.4688 0.6875-2.5625v-5.9062h3.8281v11.969h-3.8281v-1.7344c-0.57422 0.69922-1.1836 1.2148-1.8281 1.5469-0.64844 0.33203-1.3555 0.5-2.125 0.5-1.3867 0-2.4453-0.42188-3.1719-1.2656-0.71875-0.85156-1.0781-2.0859-1.0781-3.7031z"/>
  </symbol>
  <symbol id="n" overflow="visible">
   <path d="m2.0156-15.953h6.8125c2.0312 0 3.5859 0.45312 4.6719 1.3594 1.0938 0.89844 1.6406 2.1797 1.6406 3.8438 0 1.6797-0.54688 2.9688-1.6406 3.875-1.0859 0.89844-2.6406 1.3438-4.6719 1.3438h-2.7031v5.5312h-4.1094zm4.1094 2.9844v4.4531h2.2656c0.80078 0 1.4141-0.19141 1.8438-0.57812 0.4375-0.38281 0.65625-0.9375 0.65625-1.6562 0-0.70703-0.21875-1.2539-0.65625-1.6406-0.42969-0.38281-1.043-0.57812-1.8438-0.57812z"/>
  </symbol>
  <symbol id="m" overflow="visible">
   <path d="m1.8438-11.969h3.8125v11.75c0 1.6016-0.38672 2.8281-1.1562 3.6719-0.76172 0.84375-1.8711 1.2656-3.3281 1.2656h-1.8906v-2.5h0.65625c0.72656 0 1.2266-0.16797 1.5-0.5 0.26953-0.32422 0.40625-0.96875 0.40625-1.9375zm0-4.6562h3.8125v3.125h-3.8125z"/>
  </symbol>
  <symbol id="l" overflow="visible">
   <path d="m11.5-11.594v3.125c-0.52344-0.35156-1.043-0.61328-1.5625-0.78125-0.52344-0.17578-1.0625-0.26562-1.625-0.26562-1.0742 0-1.9062 0.3125-2.5 0.9375s-0.89062 1.4961-0.89062 2.6094c0 1.1172 0.29688 1.9844 0.89062 2.6094s1.4258 0.9375 2.5 0.9375c0.59375 0 1.1562-0.085937 1.6875-0.26562 0.53906-0.17578 1.0391-0.44141 1.5-0.79688v3.125c-0.59375 0.23047-1.1992 0.39453-1.8125 0.5-0.61719 0.11328-1.2344 0.17188-1.8594 0.17188-2.1562 0-3.8438-0.55078-5.0625-1.6562-1.2188-1.1133-1.8281-2.6562-1.8281-4.625s0.60938-3.5039 1.8281-4.6094c1.2188-1.1133 2.9062-1.6719 5.0625-1.6719 0.625 0 1.2383 0.058594 1.8438 0.17188 0.61328 0.10547 1.2227 0.26562 1.8281 0.48438z"/>
  </symbol>
 </defs>
 <g>
  <path d="m255.28 317.89c-24.242 5.1016-41.809 26.879-41.809 51.887 0 4.8281 3.9219 8.75 8.75 8.75s8.75-3.9219 8.75-8.75c0-16.828 11.809-31.457 28.078-34.797 0.15625-0.03125 0.31641-0.070312 0.47266-0.10937l51.832-13.684c3.8398-1.0117 6.5156-4.4883 6.5156-8.4609v-19.301l5.3633 2.8594c8.2031 4.375 17.461 6.6875 26.766 6.6875 4.8281 0 8.75-3.9219 8.75-8.75s-3.9219-8.75-8.75-8.75c-6.4453 0-12.855-1.6016-18.527-4.6289l-9.957-5.3125c-9.5742-5.1055-16.652-14.027-19.422-24.477-3.6445-13.77-4.2812-16.402-4.3672-16.793-0.76172-4.1562-4.3789-7.1758-8.6055-7.1758h-4.7969c-0.28516 0-0.47656-0.125-0.48828-0.21875l-3.6211-22.832c-0.14063-0.91406 0.23047-1.5781 0.57422-1.9727 0.30469-0.35938 0.99219-0.95703 2.1445-0.95703 4.8281 0 8.75-3.9219 8.75-8.75v-25.258c0-3.4062-1.9531-6.3672-4.7969-7.8086 1.9023-13.715 7.8633-27.25 16.086-36.703 2.3594 0.39062 4.8203-0.17969 6.7773-1.6758 11.074-8.4609 24.074-17.109 36.566-17.109h7.3594c11.742 0 23.355 3.5 33.133 9.9219v0.28125c0.011718 2.7109 1.2852 5.2617 3.4375 6.9062 12.656 9.6602 20.781 23.648 22.945 39.129-2.9102 1.4453-4.8594 4.4414-4.8594 7.8398v24.469c0 4.8281 3.9219 8.75 8.75 8.75 1.1523 0 1.832 0.59766 2.1445 0.95703 0.33984 0.39453 0.71484 1.0586 0.57812 1.9219l-3.668 22.918c-0.015624 0.035156-0.17187 0.18359-0.48828 0.18359h-4.7539c-4.1328 0-7.7305 3.0273-8.5898 7.0703-0.10156 0.48828-0.73828 3.125-4.3828 16.891-2.082 7.8477-6.4805 14.754-12.723 19.969-0.085937 0.074219-0.15234 0.16797-0.23437 0.24609-0.18359 0.17188-0.35547 0.35156-0.51953 0.53516-0.26953 0.29297-0.52344 0.58984-0.75391 0.91016-0.039062 0.058594-0.070312 0.10938-0.10938 0.16797-1.1914 1.7656-1.6914 3.875-1.4375 5.9453v33.906c0 3.9727 2.6719 7.4453 6.5156 8.4609l51.832 13.684c0.15625 0.042969 0.31641 0.078125 0.47266 0.10938 16.27 3.3438 28.078 17.973 28.078 34.797 0 4.8281 3.9219 8.75 8.75 8.75 4.8281 0 8.75-3.9219 8.75-8.75 0-25.008-17.57-46.789-41.809-51.887l-45.094-11.91-0.007813-24.438c7.332-7.1328 12.555-16.043 15.195-26.008 1.3086-4.9375 2.2461-8.4922 2.9141-11.062 8.0117-0.89844 14.449-6.8828 15.676-14.848l3.6719-22.922c0.88672-5.7578-0.78125-11.602-4.5859-16.035-1.8633-2.1758-4.1445-3.8984-6.6758-5.1016v-10.375c3.2734-1.3438 5.4961-4.5859 5.4258-8.2656-0.42578-22.211-10.199-42.809-26.977-57.16l-0.003907-0.62109c-0.011719-2.7109-1.2852-5.2617-3.4375-6.9062-13.461-10.277-30.211-15.934-47.168-15.934h-7.3594c-14.195 0-27.352 6.7305-38.922 14.672-2.7812-0.99219-5.8984-0.53906-8.2734 1.2812-17.684 13.512-29.887 39.492-30.367 64.652-0.042969 2.3438 0.85156 4.6055 2.4922 6.2852 0.83984 0.86328 1.8438 1.5312 2.9297 1.9766v10.391c-2.5312 1.2031-4.8125 2.9258-6.6758 5.1016-3.8008 4.4336-5.4727 10.277-4.5781 16.07l3.6328 22.902c1.3008 7.9844 7.75 13.949 15.715 14.832 0.66406 2.5664 1.6016 6.1172 2.9102 11.059 2.625 9.9141 7.9609 18.836 15.195 25.914v24.543z"/>
  <path d="m263.59 429.29c0 47.645 38.762 86.406 86.406 86.406s86.406-38.762 86.406-86.406c0-47.645-38.762-86.406-86.406-86.406s-86.406 38.758-86.406 86.406zm155.31 0c0 37.996-30.91 68.906-68.906 68.906s-68.906-30.91-68.906-68.906c0-37.996 30.91-68.906 68.906-68.906s68.906 30.91 68.906 68.906z"/>
  <path d="m341.25 394.29v26.25h-26.25c-4.8281 0-8.75 3.9219-8.75 8.75 0 4.8281 3.9219 8.75 8.75 8.75h26.25v26.25c0 4.8281 3.9219 8.75 8.75 8.75s8.75-3.9219 8.75-8.75v-26.25h26.25c4.8281 0 8.75-3.9219 8.75-8.75 0-4.8281-3.9219-8.75-8.75-8.75h-26.25v-26.25c0-4.8281-3.9219-8.75-8.75-8.75s-8.75 3.9141-8.75 8.75z"/>
  <path d="m551.55 177.89c-5.4766-12.957-12.266-25.461-20.172-37.164-7.8242-11.582-16.809-22.469-26.703-32.367-9.8945-9.8945-20.785-18.883-32.367-26.703-11.703-7.9062-24.207-14.691-37.16-20.168-13.203-5.582-27.02-9.875-41.074-12.754-28.836-5.8984-59.32-5.8984-88.152 0-14.051 2.8789-27.875 7.168-41.074 12.75-12.957 5.4766-25.461 12.266-37.164 20.172-11.586 7.832-22.48 16.812-32.367 26.703-9.8945 9.8945-18.883 20.785-26.703 32.367-7.9062 11.703-14.691 24.207-20.168 37.16-5.582 13.203-9.875 27.02-12.754 41.074-2.9492 14.418-4.4453 29.246-4.4453 44.082 0 14.836 1.4961 29.656 4.4453 44.078 2.8789 14.051 7.168 27.875 12.75 41.074 5.4766 12.957 12.266 25.461 20.172 37.164 7.832 11.586 16.812 22.48 26.703 32.367 8.0156 8.0156 16.719 15.465 25.879 22.152 3.8984 2.8438 9.3789 1.9961 12.223-1.9102 2.8477-3.9023 1.9961-9.375-1.9102-12.223-8.4258-6.1523-16.441-13.008-23.812-20.387-9.1055-9.1055-17.375-19.129-24.578-29.789-7.2695-10.762-13.516-22.266-18.555-34.184-5.1328-12.137-9.0781-24.84-11.719-37.762-2.7227-13.277-4.0977-26.93-4.0977-40.582 0-13.656 1.375-27.305 4.0898-40.566 2.6406-12.922 6.5898-25.629 11.727-37.766 5.0391-11.918 11.281-23.418 18.555-34.184 7.2031-10.66 15.469-20.68 24.582-29.789 9.1055-9.1055 19.129-17.375 29.789-24.578 10.762-7.2695 22.266-13.516 34.184-18.555 12.137-5.1328 24.84-9.0781 37.762-11.719 26.527-5.4258 54.609-5.4258 81.141 0 12.918 2.6406 25.625 6.5898 37.766 11.727 11.918 5.0391 23.418 11.281 34.184 18.555 10.66 7.2031 20.68 15.469 29.789 24.582 9.1094 9.1094 17.379 19.129 24.578 29.789 7.2695 10.762 13.516 22.266 18.555 34.184 5.1328 12.137 9.0781 24.84 11.719 37.762 2.7109 13.266 4.0898 26.914 4.0898 40.57s-1.375 27.305-4.0898 40.57c-2.6406 12.918-6.5898 25.625-11.727 37.766-5.0391 11.918-11.281 23.418-18.555 34.184-7.207 10.66-15.473 20.684-24.582 29.789-7.375 7.3789-15.391 14.234-23.816 20.387-3.9062 2.8477-4.7617 8.3203-1.9102 12.223 1.7148 2.3477 4.375 3.5938 7.0742 3.5938 1.7891 0 3.5977-0.54688 5.1484-1.6797 9.1562-6.6797 17.863-14.133 25.879-22.152 9.8906-9.8906 18.879-20.781 26.703-32.367 7.9062-11.703 14.691-24.207 20.168-37.16 5.582-13.203 9.875-27.02 12.754-41.074 2.9492-14.414 4.4453-29.246 4.4453-44.078s-1.4961-29.656-4.4453-44.078c-2.875-14.07-7.1641-27.887-12.75-41.086z"/>
  <use x="70" y="625.625" xlink:href="#t"/>
  <use x="86.054688" y="625.625" xlink:href="#d"/>
  <use x="96.839844" y="625.625" xlink:href="#b"/>
  <use x="111.679687" y="625.625" xlink:href="#k"/>
  <use x="126.4375" y="625.625" xlink:href="#c"/>
  <use x="136.894531" y="625.625" xlink:href="#b"/>
  <use x="151.730469" y="625.625" xlink:href="#j"/>
  <use x="175.007812" y="625.625" xlink:href="#f"/>
  <use x="190.664062" y="625.625" xlink:href="#e"/>
  <use x="212.539062" y="625.625" xlink:href="#i"/>
  <use x="228.292969" y="625.625" xlink:href="#e"/>
  <use x="242.554688" y="625.625" xlink:href="#h"/>
  <use x="265.347656" y="625.625" xlink:href="#f"/>
  <use x="281.007812" y="625.625" xlink:href="#a"/>
  <use x="296.035156" y="625.625" xlink:href="#s"/>
  <use x="303.53125" y="625.625" xlink:href="#a"/>
  <use x="318.5625" y="625.625" xlink:href="#g"/>
  <use x="70" y="647.5" xlink:href="#r"/>
  <use x="79.515625" y="647.5" xlink:href="#d"/>
  <use x="90.304688" y="647.5" xlink:href="#a"/>
  <use x="105.332031" y="647.5" xlink:href="#h"/>
  <use x="135.742188" y="647.5" xlink:href="#c"/>
  <use x="146.199219" y="647.5" xlink:href="#q"/>
  <use x="161.773438" y="647.5" xlink:href="#b"/>
  <use x="184.222656" y="647.5" xlink:href="#p"/>
  <use x="202.53125" y="647.5" xlink:href="#a"/>
  <use x="217.558594" y="647.5" xlink:href="#o"/>
  <use x="233.132812" y="647.5" xlink:href="#g"/>
  <use x="256.320312" y="647.5" xlink:href="#n"/>
  <use x="272.355469" y="647.5" xlink:href="#d"/>
  <use x="283.140625" y="647.5" xlink:href="#a"/>
  <use x="298.171875" y="647.5" xlink:href="#m"/>
  <use x="305.667969" y="647.5" xlink:href="#b"/>
  <use x="320.503906" y="647.5" xlink:href="#l"/>
  <use x="333.472656" y="647.5" xlink:href="#c"/>
 </g>
</svg>
