<?xml version="1.0" encoding="UTF-8"?>
<svg width="700pt" height="700pt" version="1.1" viewBox="0 0 700 700" xmlns="http://www.w3.org/2000/svg" xmlns:xlink="http://www.w3.org/1999/xlink">
 <defs>
  <symbol id="f" overflow="visible">
   <path d="m39.078-2.3281c-2.0117 1.043-4.1094 1.8281-6.2969 2.3594s-4.4648 0.79688-6.8281 0.79688c-7.0859 0-12.699-1.9766-16.844-5.9375-4.1367-3.957-6.2031-9.3281-6.2031-16.109 0-6.7891 2.0664-12.164 6.2031-16.125 4.1445-3.9688 9.7578-5.9531 16.844-5.9531 2.3633 0 4.6406 0.26562 6.8281 0.79688s4.2852 1.3242 6.2969 2.375v8.7969c-2.0312-1.3828-4.0391-2.3984-6.0156-3.0469-1.9688-0.64453-4.0469-0.96875-6.2344-0.96875-3.9062 0-6.9844 1.2578-9.2344 3.7656-2.2422 2.5-3.3594 5.9531-3.3594 10.359 0 4.3867 1.1172 7.8359 3.3594 10.344 2.25 2.5 5.3281 3.75 9.2344 3.75 2.1875 0 4.2656-0.32031 6.2344-0.96875 1.9766-0.64453 3.9844-1.6602 6.0156-3.0469z"/>
  </symbol>
  <symbol id="e" overflow="visible">
   <path d="m16.031-40.953v9.0625h10.516v7.2812h-10.516v13.531c0 1.4805 0.28906 2.4805 0.875 3 0.59375 0.52344 1.7656 0.78125 3.5156 0.78125h5.2344v7.2969h-8.7344c-4.0312 0-6.8867-0.83594-8.5625-2.5156-1.6797-1.6875-2.5156-4.5391-2.5156-8.5625v-13.531h-5.0781v-7.2812h5.0781v-9.0625z"/>
  </symbol>
  <symbol id="d" overflow="visible">
   <path d="m26.594-27.234v-17.078h10.266v44.312h-10.266v-4.6094c-1.3984 1.875-2.9453 3.25-4.6406 4.125-1.6875 0.875-3.6406 1.3125-5.8594 1.3125-3.9297 0-7.1562-1.5625-9.6875-4.6875-2.5234-3.125-3.7812-7.1445-3.7812-12.062 0-4.9141 1.2578-8.9375 3.7812-12.062 2.5312-3.125 5.7578-4.6875 9.6875-4.6875 2.1953 0 4.1445 0.44531 5.8438 1.3281 1.707 0.88672 3.2578 2.2578 4.6562 4.1094zm-6.7188 20.656c2.1875 0 3.8516-0.79688 5-2.3906 1.1445-1.5938 1.7188-3.9102 1.7188-6.9531 0-3.0391-0.57422-5.3594-1.7188-6.9531-1.1484-1.5938-2.8125-2.3906-5-2.3906-2.168 0-3.8242 0.79688-4.9688 2.3906-1.1484 1.5938-1.7188 3.9141-1.7188 6.9531 0 3.043 0.57031 5.3594 1.7188 6.9531 1.1445 1.5938 2.8008 2.3906 4.9688 2.3906z"/>
  </symbol>
  <symbol id="c" overflow="visible">
   <path d="m21.875-6.5781c2.1758 0 3.8359-0.79688 4.9844-2.3906 1.1562-1.5938 1.7344-3.9102 1.7344-6.9531 0-3.0391-0.57812-5.3594-1.7344-6.9531-1.1484-1.5938-2.8086-2.3906-4.9844-2.3906-2.1875 0-3.8672 0.80469-5.0312 2.4062-1.168 1.6055-1.75 3.918-1.75 6.9375 0 3.0234 0.58203 5.3359 1.75 6.9375 1.1641 1.6055 2.8438 2.4062 5.0312 2.4062zm-6.7812-20.656c1.4062-1.8516 2.9609-3.2227 4.6719-4.1094 1.707-0.88281 3.6719-1.3281 5.8906-1.3281 3.9375 0 7.1641 1.5625 9.6875 4.6875 2.5195 3.125 3.7812 7.1484 3.7812 12.062 0 4.918-1.2617 8.9375-3.7812 12.062-2.5234 3.125-5.75 4.6875-9.6875 4.6875-2.2188 0-4.1836-0.44531-5.8906-1.3281-1.7109-0.88281-3.2656-2.2539-4.6719-4.1094v4.6094h-10.188v-44.312h10.188z"/>
  </symbol>
  <symbol id="b" overflow="visible">
   <path d="m31.156-7.75h-17.141l-2.7031 7.75h-11.031l15.75-42.516h13.078l15.75 42.516h-11.031zm-14.406-7.8906h11.641l-5.8125-16.906z"/>
  </symbol>
  <symbol id="a" overflow="visible">
   <path d="m4.9062-31.891h10.188v31.328c0 4.2695-1.0273 7.5312-3.0781 9.7812-2.0547 2.25-5.0234 3.375-8.9062 3.375h-5.0469v-6.7031h1.7656c1.9375 0 3.2656-0.4375 3.9844-1.3125 0.72656-0.86719 1.0938-2.5781 1.0938-5.1406zm0-12.422h10.188v8.3125h-10.188z"/>
  </symbol>
 </defs>
 <g>
  <path d="m490 291.67c3.0938 0 6.0625-1.2305 8.25-3.418s3.418-5.1562 3.418-8.25v-23.332h6.3008-0.003906c4.5195 0 8.8516-1.7969 12.047-4.9922 3.1953-3.1914 4.9883-7.5234 4.9883-12.043v-59.266c0-4.5195-1.793-8.8516-4.9883-12.043-3.1953-3.1953-7.5273-4.9922-12.047-4.9922h-16.449c-14.449-40.906-45.25-73.973-85.031-91.281-39.781-17.312-84.969-17.312-124.75 0-39.781 17.309-70.582 50.375-85.031 91.281h-16.332c-4.5195 0-8.8516 1.7969-12.043 4.9922-3.1953 3.1914-4.9922 7.5234-4.9922 12.043v59.266c0 4.5195 1.7969 8.8516 4.9922 12.043 3.1914 3.1953 7.5234 4.9922 12.043 4.9922h24.266c4.5195 0 8.8516-1.7969 12.043-4.9922 3.1953-3.1914 4.9922-7.5234 4.9922-12.043v-59.266c-0.015625-4.0273-1.4609-7.9141-4.0859-10.969 12.68-34.875 39.18-62.98 73.254-77.684 34.074-14.703 72.703-14.703 106.78 0s60.574 42.809 73.254 77.684c-2.6211 3.0547-4.0703 6.9414-4.082 10.969v59.266c-0.003906 3.5703 1.1211 7.0547 3.2148 9.9453 2.0977 2.8906 5.0547 5.0469 8.4492 6.1562v12.598h-36.516c-4.6445 8.4531-10.328 16.293-16.918 23.336z"/>
  <path d="m370.07 291.67c-3.4492 5.9727-9.3633 10.113-16.156 11.312-6.793 1.1953-13.766-0.67188-19.051-5.1055-5.2812-4.4336-8.332-10.977-8.332-17.875s3.0508-13.441 8.332-17.875c5.2852-4.4336 12.258-6.3008 19.051-5.1055 6.793 1.1992 12.707 5.3398 16.156 11.312h71.867c16.25-30.121 17.684-66.059 3.8906-97.383s-41.27-54.527-74.461-62.883c-33.191-8.3516-68.383-0.92188-95.359 20.141-26.977 21.066-42.723 53.398-42.672 87.625-0.019531 36.664 18.113 70.957 48.418 91.586-33.676 7.8242-63.711 26.82-85.211 53.895-21.504 27.074-33.207 60.629-33.207 95.203 0 15.07 5.9883 29.52 16.641 40.176 10.656 10.656 25.109 16.641 40.176 16.641h248.04c15.07 0 29.52-5.9844 40.176-16.641s16.641-25.105 16.641-40.176c-0.003906-34.59-11.723-68.156-33.25-95.23-21.523-27.078-51.586-46.066-85.285-53.867 6.7461-4.5508 12.969-9.8359 18.551-15.75z"/>
  <use x="70" y="735" xlink:href="#f"/>
  <use x="220.503906" y="735" xlink:href="#e"/>
  <use x="287.953125" y="735" xlink:href="#d"/>
  <use x="350.015625" y="735" xlink:href="#c"/>
  <use x="450.105469" y="735" xlink:href="#b"/>
  <use x="657.265625" y="735" xlink:href="#a"/>
 </g>
</svg>
