<?xml version="1.0" encoding="UTF-8"?>
<svg width="700pt" height="700pt" version="1.1" viewBox="0 0 700 700" xmlns="http://www.w3.org/2000/svg" xmlns:xlink="http://www.w3.org/1999/xlink">
 <defs>
  <symbol id="o" overflow="visible">
   <path d="m29.312-1.75c-1.5117 0.78125-3.0898 1.3711-4.7344 1.7656-1.6367 0.40625-3.3398 0.60938-5.1094 0.60938-5.3125 0-9.5273-1.4844-12.641-4.4531-3.1055-2.9688-4.6562-7-4.6562-12.094s1.5508-9.125 4.6562-12.094c3.1133-2.9688 7.3281-4.4531 12.641-4.4531 1.7695 0 3.4727 0.19922 5.1094 0.59375 1.6445 0.39844 3.2227 0.99219 4.7344 1.7812v6.5938c-1.5312-1.0391-3.0391-1.8008-4.5156-2.2812-1.4805-0.48828-3.0391-0.73438-4.6719-0.73438-2.9375 0-5.2461 0.94531-6.9219 2.8281-1.6797 1.875-2.5156 4.4648-2.5156 7.7656 0 3.293 0.83594 5.8828 2.5156 7.7656 1.6758 1.875 3.9844 2.8125 6.9219 2.8125 1.6328 0 3.1914-0.23828 4.6719-0.71875 1.4766-0.48828 2.9844-1.2539 4.5156-2.2969z"/>
  </symbol>
  <symbol id="i" overflow="visible">
   <path d="m21.453-17.406c-0.67969-0.3125-1.3516-0.53906-2.0156-0.6875-0.65625-0.15625-1.3203-0.23438-1.9844-0.23438-1.9688 0-3.4844 0.63281-4.5469 1.8906-1.0547 1.2617-1.5781 3.0703-1.5781 5.4219v11.016h-7.6562v-23.922h7.6562v3.9219c0.97656-1.5625 2.1016-2.7031 3.375-3.4219 1.2812-0.71875 2.8125-1.0781 4.5938-1.0781 0.25 0 0.52344 0.011719 0.82812 0.03125 0.30078 0.023438 0.73438 0.070312 1.2969 0.14062z"/>
  </symbol>
  <symbol id="e" overflow="visible">
   <path d="m27.562-12.031v2.1875h-17.891c0.1875 1.793 0.83203 3.1367 1.9375 4.0312 1.1133 0.89844 2.6719 1.3438 4.6719 1.3438 1.6016 0 3.25-0.23438 4.9375-0.70312 1.6875-0.47656 3.4219-1.2031 5.2031-2.1719v5.8906c-1.8047 0.6875-3.6094 1.2031-5.4219 1.5469-1.8125 0.35156-3.6211 0.53125-5.4219 0.53125-4.3359 0-7.7031-1.0977-10.109-3.2969-2.3984-2.207-3.5938-5.2969-3.5938-9.2656 0-3.9062 1.1758-6.9727 3.5312-9.2031 2.3633-2.2383 5.6094-3.3594 9.7344-3.3594 3.7578 0 6.7695 1.1367 9.0312 3.4062 2.2578 2.2617 3.3906 5.2812 3.3906 9.0625zm-7.8594-2.5312c0-1.457-0.42969-2.6289-1.2812-3.5156-0.84375-0.89453-1.9492-1.3438-3.3125-1.3438-1.4922 0-2.6992 0.41797-3.625 1.25-0.91797 0.83594-1.4922 2.0391-1.7188 3.6094z"/>
  </symbol>
  <symbol id="a" overflow="visible">
   <path d="m14.391-10.766c-1.5938 0-2.793 0.27344-3.5938 0.8125-0.80469 0.54297-1.2031 1.3398-1.2031 2.3906 0 0.96875 0.32031 1.7305 0.96875 2.2812 0.64453 0.54297 1.5469 0.8125 2.7031 0.8125 1.4375 0 2.6445-0.51562 3.625-1.5469 0.98828-1.0312 1.4844-2.3203 1.4844-3.875v-0.875zm11.688-2.8906v13.656h-7.7031v-3.5469c-1.0312 1.4492-2.1875 2.5078-3.4688 3.1719s-2.8398 1-4.6719 1c-2.4805 0-4.4961-0.72266-6.0469-2.1719-1.543-1.4453-2.3125-3.3203-2.3125-5.625 0-2.8125 0.96094-4.8672 2.8906-6.1719 1.9375-1.3125 4.9688-1.9688 9.0938-1.9688h4.5156v-0.60938c0-1.207-0.48047-2.0938-1.4375-2.6562-0.94922-0.5625-2.4375-0.84375-4.4688-0.84375-1.6367 0-3.1562 0.16797-4.5625 0.5-1.4062 0.32422-2.7188 0.8125-3.9375 1.4688v-5.8281c1.6445-0.40625 3.2891-0.70703 4.9375-0.90625 1.6562-0.20703 3.3047-0.3125 4.9531-0.3125 4.3203 0 7.4375 0.85547 9.3438 2.5625 1.9141 1.6992 2.875 4.4609 2.875 8.2812z"/>
  </symbol>
  <symbol id="d" overflow="visible">
   <path d="m12.031-30.719v6.7969h7.875v5.4688h-7.875v10.141c0 1.1172 0.21875 1.8711 0.65625 2.2656 0.4375 0.38672 1.3125 0.57812 2.625 0.57812h3.9375v5.4688h-6.5625c-3.0234 0-5.1641-0.62891-6.4219-1.8906-1.2617-1.2578-1.8906-3.3984-1.8906-6.4219v-10.141h-3.7969v-5.4688h3.7969v-6.7969z"/>
  </symbol>
  <symbol id="c" overflow="visible">
   <path d="m19.953-20.422v-12.812h7.6875v33.234h-7.6875v-3.4531c-1.0547 1.4062-2.2148 2.4375-3.4844 3.0938-1.2734 0.65625-2.7422 0.98438-4.4062 0.98438-2.9492 0-5.3711-1.1719-7.2656-3.5156-1.8867-2.3438-2.8281-5.3594-2.8281-9.0469s0.94141-6.7031 2.8281-9.0469c1.8945-2.3438 4.3164-3.5156 7.2656-3.5156 1.6562 0 3.1172 0.33594 4.3906 1 1.2812 0.65625 2.4453 1.6836 3.5 3.0781zm-5.0469 15.484c1.6445 0 2.8945-0.59766 3.75-1.7969 0.86328-1.1953 1.2969-2.9297 1.2969-5.2031 0-2.2812-0.43359-4.0195-1.2969-5.2188-0.85547-1.1953-2.1055-1.7969-3.75-1.7969-1.625 0-2.8711 0.60156-3.7344 1.7969-0.85547 1.1992-1.2812 2.9375-1.2812 5.2188 0 2.2734 0.42578 4.0078 1.2812 5.2031 0.86328 1.1992 2.1094 1.7969 3.7344 1.7969z"/>
  </symbol>
  <symbol id="b" overflow="visible">
   <path d="m16.406-4.9375c1.6328 0 2.8828-0.59766 3.75-1.7969 0.86328-1.1953 1.2969-2.9297 1.2969-5.2031 0-2.2812-0.43359-4.0195-1.2969-5.2188-0.86719-1.1953-2.1172-1.7969-3.75-1.7969-1.6367 0-2.8906 0.60547-3.7656 1.8125-0.875 1.1992-1.3125 2.9336-1.3125 5.2031 0 2.2617 0.4375 3.9961 1.3125 5.2031 0.875 1.1992 2.1289 1.7969 3.7656 1.7969zm-5.0781-15.484c1.0508-1.3945 2.2188-2.4219 3.5-3.0781 1.2812-0.66406 2.7539-1 4.4219-1 2.9453 0 5.3672 1.1719 7.2656 3.5156 1.8945 2.3438 2.8438 5.3594 2.8438 9.0469s-0.94922 6.7031-2.8438 9.0469c-1.8984 2.3438-4.3203 3.5156-7.2656 3.5156-1.668 0-3.1406-0.33594-4.4219-1s-2.4492-1.6914-3.5-3.0781v3.4531h-7.6562v-33.234h7.6562z"/>
  </symbol>
  <symbol id="h" overflow="visible">
   <path d="m0.53125-23.922h7.6562l6.4219 16.234 5.4688-16.234h7.6562l-10.062 26.188c-1.0117 2.6641-2.1953 4.5234-3.5469 5.5781-1.3438 1.0625-3.1211 1.5938-5.3281 1.5938h-4.4219v-5.0156h2.3906c1.3008 0 2.2422-0.21094 2.8281-0.625 0.59375-0.40625 1.0547-1.1484 1.3906-2.2188l0.20312-0.65625z"/>
  </symbol>
  <symbol id="g" overflow="visible">
   <path d="m4.0156-31.891h8.2188v31.891h-8.2188z"/>
  </symbol>
  <symbol id="n" overflow="visible">
   <path d="m14.906-18.953c-1.625 0-2.8711 0.60156-3.7344 1.7969-0.85547 1.1992-1.2812 2.9375-1.2812 5.2188 0 2.2734 0.42578 4.0078 1.2812 5.2031 0.86328 1.1992 2.1094 1.7969 3.7344 1.7969 1.6445 0 2.8945-0.59766 3.75-1.7969 0.86328-1.1953 1.2969-2.9297 1.2969-5.2031 0-2.2812-0.43359-4.0195-1.2969-5.2188-0.85547-1.1953-2.1055-1.7969-3.75-1.7969zm5.0469 15.5c-1.0547 1.4062-2.2148 2.4375-3.4844 3.0938-1.2734 0.65625-2.7422 0.98438-4.4062 0.98438-2.9492 0-5.3711-1.1719-7.2656-3.5156-1.8867-2.3438-2.8281-5.3594-2.8281-9.0469s0.94141-6.6914 2.8281-9.0156c1.8945-2.332 4.3164-3.5 7.2656-3.5 1.6641 0 3.1328 0.32812 4.4062 0.98438 1.2695 0.64844 2.4297 1.6797 3.4844 3.0938v-3.5469h7.6875v33.016h-7.6875z"/>
  </symbol>
  <symbol id="m" overflow="visible">
   <path d="m3.6719-33.234h7.6562v33.234h-7.6562z"/>
  </symbol>
  <symbol id="l" overflow="visible">
   <path d="m1.2969-31.891h7.8906l5.5156 23.172 5.4688-23.172h7.9219l5.4688 23.172 5.5156-23.172h7.8125l-7.5156 31.891h-9.4844l-5.7969-24.25-5.7188 24.25h-9.4844z"/>
  </symbol>
  <symbol id="f" overflow="visible">
   <path d="m3.6719-23.922h7.6562v23.922h-7.6562zm0-9.3125h7.6562v6.2344h-7.6562z"/>
  </symbol>
  <symbol id="k" overflow="visible">
   <path d="m27.734-14.562v14.562h-7.7031v-11.156c0-2.0625-0.046875-3.4844-0.14062-4.2656-0.085937-0.78125-0.24219-1.3594-0.46875-1.7344-0.30469-0.5-0.71094-0.88281-1.2188-1.1562-0.51172-0.28125-1.0938-0.42188-1.75-0.42188-1.5938 0-2.8516 0.61719-3.7656 1.8438-0.90625 1.2305-1.3594 2.9375-1.3594 5.125v11.766h-7.6562v-23.922h7.6562v3.5c1.1445-1.3945 2.3633-2.4219 3.6562-3.0781 1.3008-0.66406 2.7383-1 4.3125-1 2.7578 0 4.8516 0.85156 6.2812 2.5469 1.4375 1.6875 2.1562 4.1523 2.1562 7.3906z"/>
  </symbol>
  <symbol id="j" overflow="visible">
   <path d="m15.062-19.031c-1.6992 0-2.9961 0.60938-3.8906 1.8281-0.88672 1.2188-1.3281 2.9766-1.3281 5.2656 0 2.293 0.44141 4.0469 1.3281 5.2656 0.89453 1.2188 2.1914 1.8281 3.8906 1.8281 1.6641 0 2.9375-0.60938 3.8125-1.8281 0.88281-1.2188 1.3281-2.9727 1.3281-5.2656 0-2.2891-0.44531-4.0469-1.3281-5.2656-0.875-1.2188-2.1484-1.8281-3.8125-1.8281zm0-5.4688c4.1133 0 7.3281 1.1094 9.6406 3.3281s3.4688 5.2969 3.4688 9.2344c0 3.9297-1.1562 7.0078-3.4688 9.2344-2.3125 2.2188-5.5273 3.3281-9.6406 3.3281-4.1367 0-7.3711-1.1094-9.7031-3.3281-2.3242-2.2266-3.4844-5.3047-3.4844-9.2344 0-3.9375 1.1602-7.0156 3.4844-9.2344 2.332-2.2188 5.5664-3.3281 9.7031-3.3281z"/>
  </symbol>
 </defs>
 <g>
  <path d="m393.75 341.25h-87.5c-4.6406-0.003906-9.0859-1.8516-12.367-5.1328s-5.1289-7.7266-5.1328-12.367v-140c0-4.832 3.918-8.75 8.75-8.75h105c2.3203 0 4.5469 0.92188 6.1875 2.5625s2.5625 3.8672 2.5625 6.1875v140c-0.003906 4.6406-1.8516 9.0859-5.1328 12.367s-7.7266 5.1289-12.367 5.1328zm-87.5-148.75v131.25h87.508l-0.007812-131.25z"/>
  <path d="m402.5 192.5h-105c-4.6406-0.003906-9.0859-1.8516-12.367-5.1328s-5.1289-7.7266-5.1328-12.367v-17.5c0.003906-4.6406 1.8516-9.0859 5.1328-12.367s7.7266-5.1289 12.367-5.1328h105c4.6406 0.003906 9.0859 1.8516 12.367 5.1328s5.1289 7.7266 5.1328 12.367v17.5c-0.003906 4.6406-1.8516 9.0859-5.1328 12.367s-7.7266 5.1289-12.367 5.1328zm-105-35v17.5h105.01l-0.007812-17.5z"/>
  <path d="m332.5 218.75h-8.75c-4.832 0-8.75-3.918-8.75-8.75s3.918-8.75 8.75-8.75h8.75c4.832 0 8.75 3.918 8.75 8.75s-3.918 8.75-8.75 8.75z"/>
  <path d="m376.25 218.75h-8.75c-4.832 0-8.75-3.918-8.75-8.75s3.918-8.75 8.75-8.75h8.75c4.832 0 8.75 3.918 8.75 8.75s-3.918 8.75-8.75 8.75z"/>
  <path d="m332.5 245h-8.75c-4.832 0-8.75-3.918-8.75-8.75s3.918-8.75 8.75-8.75h8.75c4.832 0 8.75 3.918 8.75 8.75s-3.918 8.75-8.75 8.75z"/>
  <path d="m376.25 245h-8.75c-4.832 0-8.75-3.918-8.75-8.75s3.918-8.75 8.75-8.75h8.75c4.832 0 8.75 3.918 8.75 8.75s-3.918 8.75-8.75 8.75z"/>
  <path d="m332.5 271.25h-8.75c-4.832 0-8.75-3.918-8.75-8.75s3.918-8.75 8.75-8.75h8.75c4.832 0 8.75 3.918 8.75 8.75s-3.918 8.75-8.75 8.75z"/>
  <path d="m376.25 271.25h-8.75c-4.832 0-8.75-3.918-8.75-8.75s3.918-8.75 8.75-8.75h8.75c4.832 0 8.75 3.918 8.75 8.75s-3.918 8.75-8.75 8.75z"/>
  <path d="m367.5 341.25h-35c-4.832 0-8.75-3.918-8.75-8.75v-43.75c0-4.832 3.918-8.75 8.75-8.75h35c2.3203 0 4.5469 0.92188 6.1875 2.5625s2.5625 3.8672 2.5625 6.1875v43.75c0 2.3203-0.92188 4.5469-2.5625 6.1875s-3.8672 2.5625-6.1875 2.5625zm-26.25-17.5h17.5v-26.25h-17.5z"/>
  <path d="m350 385c-39.449 0-77.285-15.672-105.18-43.566-27.895-27.898-43.566-65.734-43.566-105.18s15.672-77.285 43.566-105.18c27.898-27.895 65.734-43.566 105.18-43.566s77.285 15.672 105.18 43.566c27.895 27.898 43.566 65.734 43.566 105.18-0.042969 39.438-15.73 77.246-43.617 105.13-27.887 27.887-65.695 43.574-105.13 43.617zm0-280c-34.809 0-68.195 13.828-92.809 38.441-24.613 24.613-38.441 58-38.441 92.809s13.828 68.195 38.441 92.809c24.613 24.613 58 38.441 92.809 38.441s68.195-13.828 92.809-38.441c24.613-24.613 38.441-58 38.441-92.809-0.039062-34.797-13.879-68.16-38.484-92.766s-57.969-38.445-92.766-38.484z"/>
  <path d="m350 515.71c-1.6016 0-3.1719-0.4375-4.5391-1.2695-7.6719-4.6562-187.96-115.9-187.96-277.66 0-51.055 20.281-100.02 56.383-136.12 36.102-36.098 85.062-56.379 136.12-56.379s100.02 20.281 136.12 56.379c36.102 36.102 56.383 85.066 56.383 136.12 0 161.77-180.29 273.01-187.96 277.66v-0.003907c-1.3672 0.83203-2.9375 1.2695-4.5391 1.2695zm0-453.93c-46.398 0.050782-90.879 18.504-123.69 51.312-32.805 32.809-51.262 77.289-51.312 123.69 0 138.12 147.06 241.43 175 259.79 27.941-18.367 175-121.67 175-259.79-0.050781-46.398-18.504-90.883-51.312-123.69s-77.289-51.262-123.69-51.312z"/>
  <use x="70" y="691.25" xlink:href="#o"/>
  <use x="102.109375" y="691.25" xlink:href="#i"/>
  <use x="123.683594" y="691.25" xlink:href="#e"/>
  <use x="153.355469" y="691.25" xlink:href="#a"/>
  <use x="182.878906" y="691.25" xlink:href="#d"/>
  <use x="203.792969" y="691.25" xlink:href="#e"/>
  <use x="233.464844" y="691.25" xlink:href="#c"/>
  <use x="280.011719" y="691.25" xlink:href="#b"/>
  <use x="311.328125" y="691.25" xlink:href="#h"/>
  <use x="355.078125" y="691.25" xlink:href="#g"/>
  <use x="371.359375" y="691.25" xlink:href="#n"/>
  <use x="402.675781" y="691.25" xlink:href="#b"/>
  <use x="433.992188" y="691.25" xlink:href="#a"/>
  <use x="463.515625" y="691.25" xlink:href="#m"/>
  <use x="493.742188" y="691.25" xlink:href="#l"/>
  <use x="542" y="691.25" xlink:href="#f"/>
  <use x="556.996094" y="691.25" xlink:href="#c"/>
  <use x="588.3125" y="691.25" xlink:href="#f"/>
  <use x="603.308594" y="691.25" xlink:href="#a"/>
  <use x="632.832031" y="691.25" xlink:href="#k"/>
  <use x="663.980469" y="691.25" xlink:href="#d"/>
  <use x="684.890625" y="691.25" xlink:href="#j"/>
 </g>
</svg>
