<?xml version="1.0" encoding="UTF-8"?>
<svg width="700pt" height="700pt" version="1.1" viewBox="0 0 700 700" xmlns="http://www.w3.org/2000/svg" xmlns:xlink="http://www.w3.org/1999/xlink">
 <defs>
  <symbol id="m" overflow="visible">
   <path d="m29.312-1.75c-1.5117 0.78125-3.0898 1.3711-4.7344 1.7656-1.6367 0.40625-3.3398 0.60938-5.1094 0.60938-5.3125 0-9.5273-1.4844-12.641-4.4531-3.1055-2.9688-4.6562-7-4.6562-12.094s1.5508-9.125 4.6562-12.094c3.1133-2.9688 7.3281-4.4531 12.641-4.4531 1.7695 0 3.4727 0.19922 5.1094 0.59375 1.6445 0.39844 3.2227 0.99219 4.7344 1.7812v6.5938c-1.5312-1.0391-3.0391-1.8008-4.5156-2.2812-1.4805-0.48828-3.0391-0.73438-4.6719-0.73438-2.9375 0-5.2461 0.94531-6.9219 2.8281-1.6797 1.875-2.5156 4.4648-2.5156 7.7656 0 3.293 0.83594 5.8828 2.5156 7.7656 1.6758 1.875 3.9844 2.8125 6.9219 2.8125 1.6328 0 3.1914-0.23828 4.6719-0.71875 1.4766-0.48828 2.9844-1.2539 4.5156-2.2969z"/>
  </symbol>
  <symbol id="e" overflow="visible">
   <path d="m21.453-17.406c-0.67969-0.3125-1.3516-0.53906-2.0156-0.6875-0.65625-0.15625-1.3203-0.23438-1.9844-0.23438-1.9688 0-3.4844 0.63281-4.5469 1.8906-1.0547 1.2617-1.5781 3.0703-1.5781 5.4219v11.016h-7.6562v-23.922h7.6562v3.9219c0.97656-1.5625 2.1016-2.7031 3.375-3.4219 1.2812-0.71875 2.8125-1.0781 4.5938-1.0781 0.25 0 0.52344 0.011719 0.82812 0.03125 0.30078 0.023438 0.73438 0.070312 1.2969 0.14062z"/>
  </symbol>
  <symbol id="d" overflow="visible">
   <path d="m27.562-12.031v2.1875h-17.891c0.1875 1.793 0.83203 3.1367 1.9375 4.0312 1.1133 0.89844 2.6719 1.3438 4.6719 1.3438 1.6016 0 3.25-0.23438 4.9375-0.70312 1.6875-0.47656 3.4219-1.2031 5.2031-2.1719v5.8906c-1.8047 0.6875-3.6094 1.2031-5.4219 1.5469-1.8125 0.35156-3.6211 0.53125-5.4219 0.53125-4.3359 0-7.7031-1.0977-10.109-3.2969-2.3984-2.207-3.5938-5.2969-3.5938-9.2656 0-3.9062 1.1758-6.9727 3.5312-9.2031 2.3633-2.2383 5.6094-3.3594 9.7344-3.3594 3.7578 0 6.7695 1.1367 9.0312 3.4062 2.2578 2.2617 3.3906 5.2812 3.3906 9.0625zm-7.8594-2.5312c0-1.457-0.42969-2.6289-1.2812-3.5156-0.84375-0.89453-1.9492-1.3438-3.3125-1.3438-1.4922 0-2.6992 0.41797-3.625 1.25-0.91797 0.83594-1.4922 2.0391-1.7188 3.6094z"/>
  </symbol>
  <symbol id="b" overflow="visible">
   <path d="m14.391-10.766c-1.5938 0-2.793 0.27344-3.5938 0.8125-0.80469 0.54297-1.2031 1.3398-1.2031 2.3906 0 0.96875 0.32031 1.7305 0.96875 2.2812 0.64453 0.54297 1.5469 0.8125 2.7031 0.8125 1.4375 0 2.6445-0.51562 3.625-1.5469 0.98828-1.0312 1.4844-2.3203 1.4844-3.875v-0.875zm11.688-2.8906v13.656h-7.7031v-3.5469c-1.0312 1.4492-2.1875 2.5078-3.4688 3.1719s-2.8398 1-4.6719 1c-2.4805 0-4.4961-0.72266-6.0469-2.1719-1.543-1.4453-2.3125-3.3203-2.3125-5.625 0-2.8125 0.96094-4.8672 2.8906-6.1719 1.9375-1.3125 4.9688-1.9688 9.0938-1.9688h4.5156v-0.60938c0-1.207-0.48047-2.0938-1.4375-2.6562-0.94922-0.5625-2.4375-0.84375-4.4688-0.84375-1.6367 0-3.1562 0.16797-4.5625 0.5-1.4062 0.32422-2.7188 0.8125-3.9375 1.4688v-5.8281c1.6445-0.40625 3.2891-0.70703 4.9375-0.90625 1.6562-0.20703 3.3047-0.3125 4.9531-0.3125 4.3203 0 7.4375 0.85547 9.3438 2.5625 1.9141 1.6992 2.875 4.4609 2.875 8.2812z"/>
  </symbol>
  <symbol id="c" overflow="visible">
   <path d="m12.031-30.719v6.7969h7.875v5.4688h-7.875v10.141c0 1.1172 0.21875 1.8711 0.65625 2.2656 0.4375 0.38672 1.3125 0.57812 2.625 0.57812h3.9375v5.4688h-6.5625c-3.0234 0-5.1641-0.62891-6.4219-1.8906-1.2617-1.2578-1.8906-3.3984-1.8906-6.4219v-10.141h-3.7969v-5.4688h3.7969v-6.7969z"/>
  </symbol>
  <symbol id="a" overflow="visible">
   <path d="m19.953-20.422v-12.812h7.6875v33.234h-7.6875v-3.4531c-1.0547 1.4062-2.2148 2.4375-3.4844 3.0938-1.2734 0.65625-2.7422 0.98438-4.4062 0.98438-2.9492 0-5.3711-1.1719-7.2656-3.5156-1.8867-2.3438-2.8281-5.3594-2.8281-9.0469s0.94141-6.7031 2.8281-9.0469c1.8945-2.3438 4.3164-3.5156 7.2656-3.5156 1.6562 0 3.1172 0.33594 4.3906 1 1.2812 0.65625 2.4453 1.6836 3.5 3.0781zm-5.0469 15.484c1.6445 0 2.8945-0.59766 3.75-1.7969 0.86328-1.1953 1.2969-2.9297 1.2969-5.2031 0-2.2812-0.43359-4.0195-1.2969-5.2188-0.85547-1.1953-2.1055-1.7969-3.75-1.7969-1.625 0-2.8711 0.60156-3.7344 1.7969-0.85547 1.1992-1.2812 2.9375-1.2812 5.2188 0 2.2734 0.42578 4.0078 1.2812 5.2031 0.86328 1.1992 2.1094 1.7969 3.7344 1.7969z"/>
  </symbol>
  <symbol id="h" overflow="visible">
   <path d="m16.406-4.9375c1.6328 0 2.8828-0.59766 3.75-1.7969 0.86328-1.1953 1.2969-2.9297 1.2969-5.2031 0-2.2812-0.43359-4.0195-1.2969-5.2188-0.86719-1.1953-2.1172-1.7969-3.75-1.7969-1.6367 0-2.8906 0.60547-3.7656 1.8125-0.875 1.1992-1.3125 2.9336-1.3125 5.2031 0 2.2617 0.4375 3.9961 1.3125 5.2031 0.875 1.1992 2.1289 1.7969 3.7656 1.7969zm-5.0781-15.484c1.0508-1.3945 2.2188-2.4219 3.5-3.0781 1.2812-0.66406 2.7539-1 4.4219-1 2.9453 0 5.3672 1.1719 7.2656 3.5156 1.8945 2.3438 2.8438 5.3594 2.8438 9.0469s-0.94922 6.7031-2.8438 9.0469c-1.8984 2.3438-4.3203 3.5156-7.2656 3.5156-1.668 0-3.1406-0.33594-4.4219-1s-2.4492-1.6914-3.5-3.0781v3.4531h-7.6562v-33.234h7.6562z"/>
  </symbol>
  <symbol id="g" overflow="visible">
   <path d="m0.53125-23.922h7.6562l6.4219 16.234 5.4688-16.234h7.6562l-10.062 26.188c-1.0117 2.6641-2.1953 4.5234-3.5469 5.5781-1.3438 1.0625-3.1211 1.5938-5.3281 1.5938h-4.4219v-5.0156h2.3906c1.3008 0 2.2422-0.21094 2.8281-0.625 0.59375-0.40625 1.0547-1.1484 1.3906-2.2188l0.20312-0.65625z"/>
  </symbol>
  <symbol id="f" overflow="visible">
   <path d="m23.375-5.8125h-12.859l-2.0312 5.8125h-8.2656l11.812-31.891h9.7969l11.812 31.891h-8.2656zm-10.812-5.9219h8.7344l-4.3594-12.688z"/>
  </symbol>
  <symbol id="l" overflow="visible">
   <path d="m19.422-33.234v5.0156h-4.2344c-1.0859 0-1.8398 0.19922-2.2656 0.59375-0.42969 0.38672-0.64062 1.0625-0.64062 2.0312v1.6719h6.5312v5.4688h-6.5312v18.453h-7.6406v-18.453h-3.8125v-5.4688h3.8125v-1.6719c0-2.6016 0.72266-4.5234 2.1719-5.7656 1.457-1.25 3.707-1.875 6.75-1.875z"/>
  </symbol>
  <symbol id="k" overflow="visible">
   <path d="m4.0156-31.891h8.2188v19.109c0 2.6367 0.42969 4.5234 1.2969 5.6562 0.86328 1.1367 2.2695 1.7031 4.2188 1.7031 1.9688 0 3.3789-0.56641 4.2344-1.7031 0.86328-1.1328 1.2969-3.0195 1.2969-5.6562v-19.109h8.2344v19.109c0 4.5234-1.1367 7.8867-3.4062 10.094-2.2617 2.2109-5.7148 3.3125-10.359 3.3125-4.625 0-8.0742-1.1016-10.344-3.3125-2.2617-2.207-3.3906-5.5703-3.3906-10.094z"/>
  </symbol>
  <symbol id="j" overflow="visible">
   <path d="m3.6719-23.922h7.6562v23.922h-7.6562zm0-9.3125h7.6562v6.2344h-7.6562z"/>
  </symbol>
  <symbol id="i" overflow="visible">
   <path d="m27.734-14.562v14.562h-7.7031v-11.156c0-2.0625-0.046875-3.4844-0.14062-4.2656-0.085937-0.78125-0.24219-1.3594-0.46875-1.7344-0.30469-0.5-0.71094-0.88281-1.2188-1.1562-0.51172-0.28125-1.0938-0.42188-1.75-0.42188-1.5938 0-2.8516 0.61719-3.7656 1.8438-0.90625 1.2305-1.3594 2.9375-1.3594 5.125v11.766h-7.6562v-23.922h7.6562v3.5c1.1445-1.3945 2.3633-2.4219 3.6562-3.0781 1.3008-0.66406 2.7383-1 4.3125-1 2.7578 0 4.8516 0.85156 6.2812 2.5469 1.4375 1.6875 2.1562 4.1523 2.1562 7.3906z"/>
  </symbol>
 </defs>
 <g>
  <path d="m462.22 214.9h-224.44c-50.445 0-91.34 40.898-91.34 91.34v145.99c0 55.492 44.984 100.48 100.48 100.48h206.17c55.492 0 100.48-44.984 100.48-100.48l-0.003906-145.99c0-50.445-40.895-91.344-91.34-91.344zm43.469 241.96c0 29.445-23.871 53.312-53.312 53.312h-204.75c-29.445 0-53.312-23.871-53.312-53.312v-146.1c0-29.445 23.871-53.312 53.312-53.312h204.75c29.445 0 53.312 23.871 53.312 53.312z"/>
  <path d="m237.78 198.59h30.668v-53.629c0-44.965 36.582-81.559 81.559-81.559 44.965 0 81.559 36.582 81.559 81.559v53.629h30.668c8.7656 0 17.281 1.0781 25.445 3.0625v-56.699c0-75.906-61.758-137.66-137.66-137.66s-137.68 61.758-137.68 137.66v56.699c8.1641-1.9844 16.68-3.0625 25.445-3.0625z"/>
  <path d="m438.66 274.36h-177.33c-25.496 0-46.172 20.668-46.172 46.172v126.54c0 25.496 20.668 46.172 46.172 46.172h177.34c25.496 0 46.172-20.676 46.172-46.172l0.003906-126.54c-0.011718-25.508-20.676-46.176-46.184-46.176zm-42.062 163.2c-3.1602 5.6719-7.4648 10.273-12.891 13.773-5.4258 3.5156-11.742 6.0391-18.945 7.5703-2.1953 0.46484-4.4258 0.86719-6.7109 1.1797v11.164h-16.137v-10.055c-8.207 0-16.004-0.69141-23.406-2.082-4.2188-0.79688-8.1211-1.8125-11.699-3.0625-4.5156-1.5742-7.5586-5.8008-7.5586-10.586v-14.875c0-4.4727 4.875-7.2266 8.707-4.9336 3.5273 2.1094 7.2031 3.8516 11.016 5.2148 7.0977 2.5391 14.27 3.8047 21.508 3.8047 0.48047 0 0.95312 0 1.4258-0.015625 3.6484-0.070312 6.8789-0.45312 9.6875-1.1289 2.4688-0.59375 4.6094-1.375 6.4492-2.3281 0.52344-0.26953 1.0156-0.55078 1.4805-0.85938 2.125-1.3555 3.7109-2.957 4.75-4.8047 1.0508-1.8477 1.5742-3.8516 1.5742-6.0039 0-2.9219-0.83984-5.5312-2.5117-7.8242-1.3555-1.8711-3.125-3.6211-5.293-5.2656-0.48828-0.38672-1.0078-0.74219-1.5391-1.1094-2.8867-1.9414-6.3164-3.8242-10.281-5.625-1.3984-0.64063-2.8438-1.2773-4.3125-1.9336-2.7109-1.1797-5.5547-2.3906-8.5312-3.6055-11.691-4.8633-20.414-10.816-26.152-17.84-5.7383-7.0273-8.6094-15.523-8.6094-25.473 0-7.7969 1.5742-14.488 4.6992-20.098 3.1328-5.6016 7.3945-10.211 12.773-13.824 5.3984-3.6133 11.637-6.2812 18.742-7.9883 2.3203-0.55078 4.6719-1.0156 7.0703-1.3906v-11.219h16.137v10.055c7.5352 0.027344 14.219 0.50781 20.074 1.4102 2.8086 0.44531 5.5312 0.98828 8.1445 1.6523 4.9883 1.2617 8.4961 5.7227 8.4961 10.859v13.133c0 4.2188-4.3477 7.0352-8.1992 5.3008-2.957-1.3203-6.0039-2.4141-9.1367-3.2812s-6.2461-1.5156-9.3438-1.9336c-3.0898-0.41016-6.0273-0.62109-8.8125-0.62109-0.41016 0-0.82422 0-1.2266 0.015626-3.3516 0.0625-6.4219 0.42187-9.2148 1.0781-2.6602 0.61328-4.9609 1.4531-6.9219 2.5117-0.35156 0.18359-0.68359 0.375-1.0156 0.57812-2.1523 1.3203-3.8242 2.8945-5.0039 4.7422-1.1914 1.8477-1.7852 3.9219-1.7852 6.2109 0 2.5117 0.66406 4.7422 1.9844 6.7305 1.3281 1.9844 3.2031 3.8672 5.6367 5.6445 0.0625 0.042969 0.12109 0.085938 0.18359 0.13281 2.3984 1.7227 5.293 3.4219 8.6875 5.082 2.2852 1.1289 4.7617 2.2656 7.4453 3.4297 1.3984 0.60547 2.8516 1.2148 4.3477 1.8477 5.9922 2.5117 11.367 5.1641 16.137 7.9883 4.7617 2.8164 8.8555 6.0039 12.266 9.5469 3.4023 3.5508 6.0117 7.6055 7.8242 12.164 1.8125 4.5586 2.7227 9.8594 2.7227 15.926 0.023438 8.3398-1.5547 15.348-4.7305 21.02z"/>
  <use x="70" y="691.25" xlink:href="#m"/>
  <use x="102.109375" y="691.25" xlink:href="#e"/>
  <use x="123.683594" y="691.25" xlink:href="#d"/>
  <use x="153.355469" y="691.25" xlink:href="#b"/>
  <use x="182.878906" y="691.25" xlink:href="#c"/>
  <use x="203.792969" y="691.25" xlink:href="#d"/>
  <use x="233.464844" y="691.25" xlink:href="#a"/>
  <use x="280.011719" y="691.25" xlink:href="#h"/>
  <use x="311.328125" y="691.25" xlink:href="#g"/>
  <use x="355.078125" y="691.25" xlink:href="#f"/>
  <use x="388.9375" y="691.25" xlink:href="#e"/>
  <use x="410.515625" y="691.25" xlink:href="#b"/>
  <use x="440.039062" y="691.25" xlink:href="#l"/>
  <use x="459.070312" y="691.25" xlink:href="#b"/>
  <use x="488.59375" y="691.25" xlink:href="#c"/>
  <use x="524.738281" y="691.25" xlink:href="#k"/>
  <use x="560.265625" y="691.25" xlink:href="#a"/>
  <use x="591.582031" y="691.25" xlink:href="#a"/>
  <use x="622.898438" y="691.25" xlink:href="#j"/>
  <use x="637.894531" y="691.25" xlink:href="#i"/>
 </g>
</svg>
